<?xml version="1.0" encoding="UTF-8" standalone="no"?>
<!-- Created with Inkscape (http://www.inkscape.org/) -->
<svg id="svg3402" xmlns:rdf="http://www.w3.org/1999/02/22-rdf-syntax-ns#" xmlns="http://www.w3.org/2000/svg" xml:space="preserve" height="20.98mm" viewBox="0 0 155.90541 74.33854" width="44mm" version="1.1" xmlns:cc="http://creativecommons.org/ns#" xmlns:dc="http://purl.org/dc/elements/1.1/"><metadata id="metadata3408"><rdf:RDF><cc:Work rdf:about=""><dc:format>image/svg+xml</dc:format><dc:type rdf:resource="http://purl.org/dc/dcmitype/StillImage"/><dc:title/></cc:Work></rdf:RDF></metadata><g id="g3410" transform="matrix(1.25 0 0 -1.25 -2.8118 75.863)"><g id="g3412" transform="matrix(.1 0 0 .1 .581 -163.82)"><g id="g6" fill="#ffffff"><path id="path3414" d="m774.43 1766.4v-20.988h22.12v-54.871h20.13v75.859h-42.25"/><path id="path3416" d="m766.85 1745.4h4.8594v27.621h-4.8594v-27.621z"/><path id="path3418" d="m786.29 1690.5v21h-22.14v54.852h-20.11v-75.852h42.25"/><path id="path3420" d="m789 1683.8h4.8672v27.672h-4.8672v-27.672z"/></g><g id="g12" fill="#ffffff"><path id="path3422" d="m842.92 1686.6h17.84v81.879h-17.84v-81.879z"/><path id="path3424" d="m986.69 1746.5v-59.898h19.1v30.57c0.15 14.969 17.01 15.938 17.01 15.938v14.441c-9.35 0-17.06-7.1914-17.06-7.1914v6.1406h-19.05"/><path id="path3426" d="m1065.7 1746.5v-59.918h18.36v35.328c0 8.5429 13.63 9.1093 13.63 0v-35.328h18.04v44.848c0 9.0234-11.81 22.32-31.67 9.4414v5.6289h-18.36"/><path id="path3428" d="m1029 1708.7c0 4.25 3.46 7.6914 7.71 7.6914 4.23 0 7.69-3.4414 7.69-7.6914 0-4.2695-3.46-7.7109-7.69-7.7109-4.25 0-7.71 3.4414-7.71 7.7109m-1.79 24.949s1.64 0.4414 8.52 0.1797c8.78-0.3086 7.72-7.457 7.72-7.457s-4.24 2.5586-10.38 2.6601c-6.74 0.1172-20.23-4.0234-20.23-21.812 0-15.738 12.56-20.258 20.04-20.258 7.18 0 11.36 3.4688 11.36 3.4688v-3.7696h17.32v40.789c0 7.9805-1.46 10.109-5.05 14.102-5.07 5.5898-17.03 6.0468-17.03 6.0468h-12.27v-13.949"/><path id="path3430" d="m1146.4 1744.6c-19.17 0.4687-27.3-15.719-27.3-28.391-0.13-16.629 10.8-30.219 27.14-28.941 3.83 0.4102 7.03 1.9024 10.21 4.3907v-5.0782h18.54v81.891h-18.54v-27.18c-3.83 2.789-10.05 3.3086-10.05 3.3086m-0.25-40.211c-6.4 0-11.56 5.1719-11.56 11.551 0 6.3789 5.16 11.57 11.56 11.57 6.37 0 11.54-5.1914 11.54-11.57 0-6.3789-5.17-11.551-11.54-11.551"/><path id="path3432" d="m954.42 1677c-8.49 0.3789-10.28 5.8203-10.28 5.8203h-21.42c4.46-29.902 56.98-31.109 59.43-2.4296v66.129h-17.89v-6.2383c-12.31 12.469-41.05 3.4492-40.05-24.621 0.91-26.25 28.72-34.152 40.05-23.98v-7.039c-0.05-7.9493-9.84-7.6407-9.84-7.6407m-1.29 27.891c-6.39 0-11.58 5.1796-11.58 11.578 0 6.3906 5.19 11.59 11.58 11.59 6.4 0 11.59-5.1992 11.59-11.59 0-6.3985-5.19-11.578-11.59-11.578"/><path id="path3434" d="m892.75 1748.8c-14.62 0-28.89-11.961-28.88-30.871 0.02-21.262 13.3-33.539 30.82-33.012 13.42 0.4101 22.73 8.8632 26.09 20.781h-18.3c-0.93-1.8984-3.55-4.1211-8.94-4.1211-6.82 0-10.39 5.0508-10.39 10.102l38.71 0.019c2.18 22.059-12.07 37.102-29.11 37.102m-9.88-24.582c0.57 4.9493 4.78 8.8008 9.9 8.8008s9.32-3.8515 9.88-8.8008h-19.78"/></g><g id="g21" fill="#ffffff"><path id="path3436" d="m1189.7 1768.5c-5.73 0-10.39-4.661-10.39-10.391 0-5.7617 4.66-10.41 10.39-10.41 5.74 0 10.41 4.6484 10.41 10.41 0 5.7301-4.67 10.391-10.41 10.391m0-19.321c-4.91 0-8.9 4-8.9 8.9296 0 4.9101 3.99 8.8981 8.9 8.8981s8.91-3.988 8.91-8.8981c0-4.9296-4-8.9296-8.91-8.9296"/><path id="path3438" d="m1187 1752.8h-1.49v10.91h5.04c1.78 0 3.59-0.617 3.59-2.918 0-1.6093-0.82-2.2108-1.52-2.621 0.62-0.2578 1.24-0.5391 1.3-2.0508l0.09-1.9804c0.02-0.6172 0.09-0.8477 0.55-1.0977v-0.2422h-1.81c-0.21 0.6602-0.26 2.332-0.26 2.7422 0 0.8984-0.18 1.9375-1.94 1.9375h-3.55v-4.6797m0 5.9531h3.4c1.07 0 2.22 0.2774 2.22 1.887 0 1.672-1.24 1.812-1.97 1.812h-3.65v-3.699"/><path id="path3440" d="m271.84 1743.2-9.328-26.82h18.336l-9.008 26.82zm17.191-52-4.351 13.059h-26.207l-4.453-13.059h-15.024l26.832 73.75h11.293l26.93-73.75h-15.02"/><path id="path3442" d="m358.79 1733.7c-8.078 0-9.117-6.6329-9.117-15.442 0-8.8007 1.039-15.539 9.117-15.539 8.082 0 9.117 6.7383 9.117 15.539 0 8.8086-1.035 15.442-9.117 15.442zm17.09-38.23c-3.004-3-7.871-4.8711-13.149-4.8711-5.703 0-9.742 1.5625-13.468 5.6992v-5.0781h-13.051v73.75h13.461v-24.539c3.527 3.9375 7.566 5.3789 13.058 5.3789 5.278 0 10.145-1.8593 13.149-4.8593 5.391-5.3907 5.488-14.609 5.488-22.692 0-8.0781-0.097-17.398-5.488-22.789"/><path id="path3444" d="m420 1730.5c-2.074 2.0703-3.828 3.2227-7.145 3.2227-4.148 0-8.703-3.1094-8.703-9.9493v-32.531h-13.461v53.969h13.149v-5.1797c2.59 3.1094 7.769 5.8008 13.57 5.8008 5.281 0 9.02-1.3398 12.746-5.0703l-10.16-10.3"/><path id="path3446" d="m461.34 1714h-10.668c-4.867 0-7.566-2.2812-7.566-6.1093 0-3.7305 2.488-6.211 7.769-6.211 3.727 0 6.113 0.3125 8.492 2.5899 1.45 1.3398 1.973 3.5195 1.973 6.832v2.8984zm0.312-22.789v4.6601c-3.625-3.6211-7.05-5.1718-13.257-5.1718-6.114 0-10.567 1.5507-13.782 4.7617-2.902 3-4.453 7.3594-4.453 12.121 0 8.5976 5.903 15.637 18.438 15.637h12.742v2.6914c0 5.9102-2.898 8.5-10.043 8.5-5.188 0-7.566-1.2383-10.367-4.4609l-8.594 8.4023c5.281 5.7891 10.457 7.4492 19.477 7.4492 15.121 0 22.992-6.4218 22.992-19.059v-35.531h-13.153"/><path id="path3448" d="m517.17 1691.2v32.629c0 7.3594-4.66 9.8516-8.9 9.8516-4.257 0-9.023-2.4922-9.023-9.8516v-32.629h-13.461v53.969h13.153v-4.9687c3.523 3.7305 8.492 5.5898 13.471 5.5898 5.38 0 9.73-1.7617 12.73-4.7617 4.35-4.3476 5.49-9.4297 5.49-15.328v-34.5h-13.46"/><path id="path3450" d="m562.83 1733.7c-8.08 0-9.12-6.6329-9.12-15.442 0-8.8007 1.04-15.539 9.12-15.539s9.22 6.7383 9.22 15.539c0 8.8086-1.14 15.442-9.22 15.442zm9.53-42.48v5.0781c-3.73-4.1367-7.66-5.6992-13.37-5.6992-5.28 0-10.25 1.8711-13.25 4.8711-5.39 5.3906-5.5 14.711-5.5 22.789 0 8.0821 0.11 17.301 5.5 22.692 3 3 7.87 4.8593 13.15 4.8593 5.49 0 9.63-1.4414 13.16-5.3789v24.539h13.46v-73.75h-13.15"/><path id="path3452" d="m645.14 1731.3c-1.55 1.5508-3.62 2.3907-6.32 2.3907-2.69 0-4.65-0.8399-6.21-2.3907-2.8-2.8008-3.11-7.4609-3.11-13.051 0-5.5976 0.31-10.359 3.11-13.16 1.56-1.5508 3.52-2.3789 6.21-2.3789 2.7 0 4.77 0.8281 6.32 2.3789 2.8 2.8008 3.11 7.5625 3.11 13.16 0 5.5899-0.31 10.25-3.11 13.051zm10.47-34.082c-3.32-3.5195-8.81-6.6289-16.79-6.6289-7.97 0-13.36 3.1094-16.67 6.6289-4.87 5.082-6.12 11.191-6.12 21.031 0 9.7422 1.25 15.852 6.12 20.922 3.31 3.5274 8.7 6.6289 16.67 6.6289 7.98 0 13.47-3.1015 16.79-6.6289 4.86-5.0703 6.1-11.18 6.1-20.922 0-9.8398-1.24-15.949-6.1-21.031"/><path id="path3454" d="m686.75 1733.4v-42.16h-13.47v42.16h-5.59v10.258h5.59v6.7304c0 7.6719 4.77 15.442 15.75 15.442h7.67v-11.399h-5.29c-3.21 0-4.66-1.7617-4.66-4.8711v-5.9023h9.95v-10.258h-9.95"/><path id="path3456" d="m119.33 2186.5h-37.488v-118.44h37.488c32.598 0 37.492 27.16 37.492 59.219 0 32.051-4.894 59.223-37.492 59.223zm47.266-331.97-50.531 158.65h-34.223v-158.65h-60.856v386.84h97.793c70.641 0 98.887-34.219 98.887-114.09 0-47.82-9.773-82.047-45.086-101.06l57.586-171.69h-63.57"/><path id="path3458" d="m348.6 1981.1h-19.016c-12.5 0-21.734-1.078-29.883-8.688-7.066-6.531-11.418-20.652-11.418-32.062 0-25.539 10.325-39.66 29.883-39.66 17.391 0 30.434 14.66 30.434 38.031v42.379zm3.258-126.59v24.441c-4.895-7.058-10.868-14.672-17.383-19.011-8.703-5.969-17.934-9.778-32.61-9.778-23.906 0-39.113 7.059-53.789 23.899-11.406 13.59-17.379 35.32-17.379 64.121 0 26.078 9.231 48.89 26.622 64.109 14.125 12.5 32.597 19.559 65.738 19.559h25.543v39.66c0 21.191-9.785 33.152-27.719 33.152-8.691 0-14.664-3.269-19.016-8.16-5.972-6.519-8.687-14.66-8.687-26.609h-57.59c0 22.808 6.516 44 24.449 61.937 13.582 13.582 36.949 23.352 60.305 23.352 23.906 0 46.187-5.969 60.855-21.192 15.215-15.211 24.989-36.398 24.989-67.371v-202.11h-54.328"/><path id="path3460" d="m539.83 2089.2c-27.16 0-47.809-18.469-47.809-49.442v-185.27h-57.598v286.33h55.422v-30.43c5.973 8.699 15.215 16.848 24.985 22.821 12.5 7.609 27.72 11.949 44.56 11.949v-55.961h-19.56"/><path id="path3462" d="m581.11 1854.5v278.72h57.6v-278.72h-57.6zm-3.26 354.51c0 17.558 14.23 31.789 31.79 31.789 17.55 0 31.79-14.231 31.79-31.789 0-17.551-14.24-31.782-31.79-31.782-17.56 0-31.79 14.231-31.79 31.782"/><path id="path3464" d="m719.65 1871.9c-17.93 14.129-28.8 35.859-28.8 69.539v147.79h-36.92v44.012h36.92v80.957h57.6v-80.957h39.65v-44.012h-39.65v-144.53c0-26.61 13.58-38.571 40.75-38.571v-51.609c-27.17 0-49.99 2.172-69.55 17.383"/><path id="path3466" d="m916.86 1981.1h-19.01c-12.49 0-21.74-1.078-29.89-8.688-7.06-6.531-11.4-20.652-11.4-32.062 0-25.539 10.32-39.66 29.88-39.66 17.38 0 30.42 14.66 30.42 38.031v42.379zm3.27-126.59v24.441c-4.89-7.058-10.88-14.672-17.39-19.011-8.69-5.969-17.94-9.778-32.6-9.778-23.91 0-39.12 7.059-53.79 23.899-11.42 13.59-17.39 35.32-17.39 64.121 0 26.078 9.24 48.89 26.62 64.109 14.13 12.5 32.6 19.559 65.75 19.559h25.53v39.66c0 21.191-9.77 33.152-27.7 33.152-8.7 0-14.68-3.269-19.02-8.16-5.97-6.519-8.69-14.66-8.69-26.609h-57.6c0 22.808 6.52 44 24.45 61.937 13.58 13.582 36.95 23.352 60.31 23.352 23.91 0 46.18-5.969 60.85-21.192 15.22-15.211 25-36.398 25-67.371v-202.11h-54.33"/><path id="path3468" d="m1116.8 1854.5v205.92c0 22.269-12.5 33.14-28.26 33.14-15.75 0-28.25-10.871-28.25-33.14v-205.92h-57.59v286.33h55.42v-21.191c4.89 6.519 11.95 14.121 19.01 17.929 8.15 4.883 18.48 7.602 28.8 7.602 23.37 0 39.13-7.059 52.16-22.27 11.41-13.043 16.3-28.801 16.3-61.941v-206.46h-57.59"/><path id="path3470" d="m1228.5 1895.1c-0.52 0.531-1.22 0.879-2.18 0.879h-3.39v-9.93h3.39c0.96 0 1.66 0.36 2.18 0.871 0.87 0.969 0.95 2.27 0.95 4.09 0 1.75-0.17 3.141-0.95 4.09zm1.74-28.18-4.27 13.918h-3.04v-13.918h-5.66v34.278h9.05c2.87 0 5.05-0.7 6.44-2.09 1.74-1.828 2.26-4.43 2.26-8.098 0-3.379-0.34-5.742-2.17-7.652-0.43-0.52-1.04-0.957-1.66-1.297l4.88-15.141h-5.83zm-4.79 43.071c-14.27 0-25.32-11.051-25.32-25.852 0-14.789 11.05-25.852 25.32-25.852s25.32 11.063 25.32 25.852c0 14.801-11.05 25.852-25.32 25.852zm0-57.352c-17.4 0-31.5 14.109-31.5 31.5 0 17.41 14.1 31.512 31.5 31.512 17.41 0 31.5-14.102 31.5-31.512 0-17.391-14.09-31.5-31.5-31.5"/></g></g></g></svg>
